<svg width="30" height="32" viewBox="0 0 30 32" fill="none" xmlns="http://www.w3.org/2000/svg">
<path d="M27.1499 14.1383C26.6571 13.6211 26.0572 13.1728 25.5002 12.7245C24.0647 11.69 22.4364 10.9486 21.0653 9.86235C17.873 7.34504 17.166 3.18975 19.2013 0C17.166 0.396563 15.3877 1.29314 13.8666 2.27593C8.3176 5.86224 6.13228 12.19 8.74609 17.6212C8.83179 17.7936 8.91749 17.966 8.91749 18.1902C8.91749 18.5695 8.59612 18.9143 8.16763 19.0523C7.67486 19.2247 7.16067 19.1212 6.7536 18.8454C6.632 18.7634 6.53031 18.664 6.45365 18.5523C4.03267 16.0867 3.64702 12.5521 5.2753 9.72442C1.69738 12.0693 -0.252261 16.0349 0.0262596 19.7764C0.154808 20.6385 0.283355 21.5006 0.647574 22.3627C0.947519 23.3972 1.52599 24.4317 2.16872 25.3456C4.48259 28.3284 8.489 30.4664 12.7954 30.8974C17.3802 31.363 22.2865 30.6905 25.8001 28.1387C29.7208 25.2766 31.092 20.6902 29.0781 16.7591L28.7996 16.3108C28.3496 15.5177 27.1499 14.1383 27.1499 14.1383ZM20.3797 25.0007C19.7798 25.4145 18.7943 25.8628 18.023 26.0352C15.6234 26.7249 13.2238 25.7594 11.8098 24.6214C14.3594 24.1386 15.8805 22.6213 16.3304 21.0868C16.6946 19.7075 16.009 18.5695 15.7305 17.2419C15.4734 15.966 15.5163 14.8797 16.0947 13.69C16.5018 14.3452 16.9303 15.0004 17.4445 15.5177C19.0942 17.2419 21.6866 18.0005 22.2436 20.3454C22.3293 20.5868 22.3722 20.8282 22.3722 21.0868C22.4364 22.5006 21.6652 24.0524 20.3797 25.0007Z" fill="#2E7D32"/>
</svg>
